<?xml version="1.0" encoding="UTF-8"?>
<svg width="800" height="600" xmlns="http://www.w3.org/2000/svg">
  <defs>
    <linearGradient id="bg" x1="0%" y1="0%" x2="100%" y2="100%">
      <stop offset="0%" style="stop-color:#f5f5f5"/>
      <stop offset="100%" style="stop-color:#eeeeee"/>
    </linearGradient>
    <linearGradient id="tools" x1="0%" y1="0%" x2="100%" y2="0%">
      <stop offset="0%" style="stop-color:#43a047"/>
      <stop offset="100%" style="stop-color:#66bb6a"/>
    </linearGradient>
  </defs>
  
  <!-- Background -->
  <rect width="100%" height="100%" fill="url(#bg)"/>
  
  <!-- Cleaning Tools -->
  <g transform="translate(400,300)" fill="url(#tools)">
    <!-- Vacuum -->
    <path d="M-150,-30 L-50,-30 L-30,30 L-170,30 Z"/>
    <!-- Spray Bottle -->
    <path d="M50,-50 L100,-50 L120,50 L30,50 Z"/>
    <!-- Brush -->
    <rect x="150" y="-40" width="40" height="80" rx="10"/>
    <path d="M150,0 L190,0" stroke="#43a047" stroke-width="8"/>
  </g>
  
  <!-- Sparkles -->
  <g fill="#66bb6a">
    <circle cx="200" cy="150" r="8" opacity="0.8"/>
    <circle cx="600" cy="400" r="10" opacity="0.6"/>
    <circle cx="150" cy="450" r="6" opacity="0.7"/>
    <circle cx="650" cy="200" r="8" opacity="0.5"/>
    <circle cx="300" cy="500" r="7" opacity="0.6"/>
  </g>
  
  <!-- Decorative Lines -->
  <path d="M700,100 Q 650,150 700,200" stroke="#43a047" stroke-width="4" fill="none"/>
  <path d="M100,400 Q 150,450 100,500" stroke="#43a047" stroke-width="4" fill="none"/>
</svg> 