<?xml version="1.0" encoding="UTF-8"?>
<svg width="800" height="600" xmlns="http://www.w3.org/2000/svg">
  <defs>
    <linearGradient id="bg" x1="0%" y1="0%" x2="100%" y2="100%">
      <stop offset="0%" style="stop-color:#eceff1"/>
      <stop offset="100%" style="stop-color:#cfd8dc"/>
    </linearGradient>
    <linearGradient id="tools" x1="0%" y1="0%" x2="100%" y2="0%">
      <stop offset="0%" style="stop-color:#1565c0"/>
      <stop offset="100%" style="stop-color:#1976d2"/>
    </linearGradient>
  </defs>
  
  <!-- Background -->
  <rect width="100%" height="100%" fill="url(#bg)"/>
  
  <!-- Plumbing Tools -->
  <g transform="translate(400,300)" fill="url(#tools)">
    <!-- Wrench -->
    <path d="M-100,-50 L0,-50 L20,-30 L20,30 L0,50 L-100,50 L-120,30 L-120,-30 Z" />
    <!-- Pipe -->
    <path d="M50,-100 L100,-100 L100,100 L50,100 Z" />
    <circle cx="75" cy="0" r="30" fill="#cfd8dc"/>
  </g>
  
  <!-- Water Drops -->
  <circle cx="200" cy="150" r="15" fill="#2196f3" opacity="0.8"/>
  <circle cx="600" cy="400" r="20" fill="#2196f3" opacity="0.6"/>
  <circle cx="150" cy="450" r="12" fill="#2196f3" opacity="0.7"/>
  
  <!-- Decorative Lines -->
  <path d="M700,200 Q 650,250 700,300" stroke="#1976d2" stroke-width="6" fill="none"/>
  <path d="M100,200 Q 150,250 100,300" stroke="#1976d2" stroke-width="6" fill="none"/>
</svg> 