<?xml version="1.0" encoding="UTF-8"?>
<svg width="120" height="120" version="1.1" viewBox="0 0 120 120" xmlns="http://www.w3.org/2000/svg">
 <rect width="120" height="120" fill="#f0f0f0"/>
 <g transform="matrix(2.5 0 0 2.5 60 52)">
  <path d="m0 0c-6.1 0-11-4.9-11-11s4.9-11 11-11 11 4.9 11 11-4.9 11-11 11zm0-2c5 0 9-4 9-9s-4-9-9-9-9 4-9 9 4 9 9 9z" fill="#999"/>
  <circle cx="0" cy="-7" r="3" fill="#999"/>
  <path d="m-7 3c0-4.4 3.6-8 8-8s8 3.6 8 8" fill="none" stroke="#999" stroke-width="2"/>
 </g>
</svg> 